HIERARCHY
ROOT mixamorig:Hips
{
	OFFSET -0.000008 104.274872 1.554316
	CHANNELS 6 Xposition Yposition Zposition Xrotation Yrotation Zrotation
	JOINT mixamorig:Spine
	{
		OFFSET -0.000005 10.181595 0.131519
		CHANNELS 6 Xposition Yposition Zposition Xrotation Yrotation Zrotation
		JOINT mixamorig:Spine1
		{
			OFFSET -0.000000 9.893959 -1.470707
			CHANNELS 6 Xposition Yposition Zposition Xrotation Yrotation Zrotation
			JOINT mixamorig:Spine2
			{
				OFFSET -0.000000 9.220757 -1.370641
				CHANNELS 6 Xposition Yposition Zposition Xrotation Yrotation Zrotation
				JOINT mixamorig:Neck
				{
					OFFSET 0.000001 16.740417 -2.049036
					CHANNELS 6 Xposition Yposition Zposition Xrotation Yrotation Zrotation
					JOINT mixamorig:Head
					{
						OFFSET 0.000000 9.617874 1.685006
						CHANNELS 6 Xposition Yposition Zposition Xrotation Yrotation Zrotation
						JOINT mixamorig:HeadTop_End
						{
							OFFSET 0.000002 22.037354 7.501101
							CHANNELS 6 Xposition Yposition Zposition Xrotation Yrotation Zrotation
							End Site
							{
								OFFSET 0.000168 2310.654297 -282.823242
							}
						}
					}
				}
				JOINT mixamorig:RightShoulder
				{
					OFFSET -4.569970 11.014908 -2.160885
					CHANNELS 6 Xposition Yposition Zposition Xrotation Yrotation Zrotation
					JOINT mixamorig:RightArm
					{
						OFFSET -10.592851 -0.524811 -2.232101
						CHANNELS 6 Xposition Yposition Zposition Xrotation Yrotation Zrotation
						JOINT mixamorig:RightForeArm
						{
							OFFSET -27.841511 0.000031 -0.000004
							CHANNELS 6 Xposition Yposition Zposition Xrotation Yrotation Zrotation
							JOINT mixamorig:RightHand
							{
								OFFSET -28.328831 -0.000015 0.000015
								CHANNELS 6 Xposition Yposition Zposition Xrotation Yrotation Zrotation
								JOINT mixamorig:RightHandThumb1
								{
									OFFSET -2.464806 -1.573990 2.681852
									CHANNELS 6 Xposition Yposition Zposition Xrotation Yrotation Zrotation
									JOINT mixamorig:RightHandThumb2
									{
										OFFSET -3.215179 -1.872803 1.924282
										CHANNELS 6 Xposition Yposition Zposition Xrotation Yrotation Zrotation
										JOINT mixamorig:RightHandThumb3
										{
											OFFSET -2.654831 -1.527969 1.512609
											CHANNELS 6 Xposition Yposition Zposition Xrotation Yrotation Zrotation
											JOINT mixamorig:RightHandThumb4
											{
												OFFSET -2.018814 -1.152008 1.108052
												CHANNELS 6 Xposition Yposition Zposition Xrotation Yrotation Zrotation
												End Site
												{
													OFFSET -188.809540 -114.533607 132.431396
												}
											}
										}
									}
								}
								JOINT mixamorig:RightHandIndex1
								{
									OFFSET -9.108284 -0.517868 2.259835
									CHANNELS 6 Xposition Yposition Zposition Xrotation Yrotation Zrotation
									JOINT mixamorig:RightHandIndex2
									{
										OFFSET -3.699989 0.000000 0.001215
										CHANNELS 6 Xposition Yposition Zposition Xrotation Yrotation Zrotation
										JOINT mixamorig:RightHandIndex3
										{
											OFFSET -2.850006 0.000031 -0.000522
											CHANNELS 6 Xposition Yposition Zposition Xrotation Yrotation Zrotation
											JOINT mixamorig:RightHandIndex4
											{
												OFFSET -2.772186 -0.000015 -0.000020
												CHANNELS 6 Xposition Yposition Zposition Xrotation Yrotation Zrotation
												End Site
												{
													OFFSET -277.218445 0.000000 -0.050231
												}
											}
										}
									}
								}
								JOINT mixamorig:RightHandMiddle1
								{
									OFFSET -9.532516 -0.000031 -0.000023
									CHANNELS 6 Xposition Yposition Zposition Xrotation Yrotation Zrotation
									JOINT mixamorig:RightHandMiddle2
									{
										OFFSET -3.700005 -0.000015 0.003713
										CHANNELS 6 Xposition Yposition Zposition Xrotation Yrotation Zrotation
										JOINT mixamorig:RightHandMiddle3
										{
											OFFSET -2.949974 0.000015 -0.002054
											CHANNELS 6 Xposition Yposition Zposition Xrotation Yrotation Zrotation
											JOINT mixamorig:RightHandMiddle4
											{
												OFFSET -2.946640 0.000000 -0.000156
												CHANNELS 6 Xposition Yposition Zposition Xrotation Yrotation Zrotation
												End Site
												{
													OFFSET -294.664337 0.000000 -0.113670
												}
											}
										}
									}
								}
								JOINT mixamorig:RightHandRing1
								{
									OFFSET -9.103600 -0.043076 -1.865134
									CHANNELS 6 Xposition Yposition Zposition Xrotation Yrotation Zrotation
									JOINT mixamorig:RightHandRing2
									{
										OFFSET -3.379288 0.000000 -0.001055
										CHANNELS 6 Xposition Yposition Zposition Xrotation Yrotation Zrotation
										JOINT mixamorig:RightHandRing3
										{
											OFFSET -2.889687 -0.000015 0.000379
											CHANNELS 6 Xposition Yposition Zposition Xrotation Yrotation Zrotation
											JOINT mixamorig:RightHandRing4
											{
												OFFSET -2.638809 -0.000015 0.000941
												CHANNELS 6 Xposition Yposition Zposition Xrotation Yrotation Zrotation
												End Site
												{
													OFFSET -263.880371 0.000000 0.516020
												}
											}
										}
									}
								}
								JOINT mixamorig:RightHandPinky1
								{
									OFFSET -8.076683 -0.486710 -3.806280
									CHANNELS 6 Xposition Yposition Zposition Xrotation Yrotation Zrotation
									JOINT mixamorig:RightHandPinky2
									{
										OFFSET -3.600014 -0.000015 -0.003747
										CHANNELS 6 Xposition Yposition Zposition Xrotation Yrotation Zrotation
										JOINT mixamorig:RightHandPinky3
										{
											OFFSET -2.099983 0.000000 -0.005739
											CHANNELS 6 Xposition Yposition Zposition Xrotation Yrotation Zrotation
											JOINT mixamorig:RightHandPinky4
											{
												OFFSET -2.115768 -0.000031 -0.003680
												CHANNELS 6 Xposition Yposition Zposition Xrotation Yrotation Zrotation
												End Site
												{
													OFFSET -211.577087 0.000000 -0.350686
												}
											}
										}
									}
								}
							}
						}
					}
				}
				JOINT mixamorig:LeftShoulder
				{
					OFFSET 4.570447 11.014725 -2.160855
					CHANNELS 6 Xposition Yposition Zposition Xrotation Yrotation Zrotation
					JOINT mixamorig:LeftArm
					{
						OFFSET 10.592371 -0.524597 -2.232119
						CHANNELS 6 Xposition Yposition Zposition Xrotation Yrotation Zrotation
						JOINT mixamorig:LeftForeArm
						{
							OFFSET 27.841532 -0.000031 0.000026
							CHANNELS 6 Xposition Yposition Zposition Xrotation Yrotation Zrotation
							JOINT mixamorig:LeftHand
							{
								OFFSET 28.328846 -0.000061 0.000022
								CHANNELS 6 Xposition Yposition Zposition Xrotation Yrotation Zrotation
								JOINT mixamorig:LeftHandThumb1
								{
									OFFSET 2.466141 -1.576172 2.681732
									CHANNELS 6 Xposition Yposition Zposition Xrotation Yrotation Zrotation
									JOINT mixamorig:LeftHandThumb2
									{
										OFFSET 3.217812 -1.872070 1.916482
										CHANNELS 6 Xposition Yposition Zposition Xrotation Yrotation Zrotation
										JOINT mixamorig:LeftHandThumb3
										{
											OFFSET 2.656029 -1.528778 1.514513
											CHANNELS 6 Xposition Yposition Zposition Xrotation Yrotation Zrotation
											JOINT mixamorig:LeftHandThumb4
											{
												OFFSET 2.020889 -1.154053 1.115139
												CHANNELS 6 Xposition Yposition Zposition Xrotation Yrotation Zrotation
												End Site
												{
													OFFSET 190.885437 -115.081749 130.048782
												}
											}
										}
									}
								}
								JOINT mixamorig:LeftHandIndex1
								{
									OFFSET 9.109314 -0.518021 2.259871
									CHANNELS 6 Xposition Yposition Zposition Xrotation Yrotation Zrotation
									JOINT mixamorig:LeftHandIndex2
									{
										OFFSET 3.699989 0.000000 -0.000322
										CHANNELS 6 Xposition Yposition Zposition Xrotation Yrotation Zrotation
										JOINT mixamorig:LeftHandIndex3
										{
											OFFSET 2.850006 0.000000 0.000352
											CHANNELS 6 Xposition Yposition Zposition Xrotation Yrotation Zrotation
											JOINT mixamorig:LeftHandIndex4
											{
												OFFSET 2.774864 -0.000031 -0.000027
												CHANNELS 6 Xposition Yposition Zposition Xrotation Yrotation Zrotation
												End Site
												{
													OFFSET 277.486267 0.000000 -0.009857
												}
											}
										}
									}
								}
								JOINT mixamorig:LeftHandMiddle1
								{
									OFFSET 9.533394 0.000061 0.000044
									CHANNELS 6 Xposition Yposition Zposition Xrotation Yrotation Zrotation
									JOINT mixamorig:LeftHandMiddle2
									{
										OFFSET 3.699989 -0.000015 -0.000231
										CHANNELS 6 Xposition Yposition Zposition Xrotation Yrotation Zrotation
										JOINT mixamorig:LeftHandMiddle3
										{
											OFFSET 2.949997 -0.000015 -0.000059
											CHANNELS 6 Xposition Yposition Zposition Xrotation Yrotation Zrotation
											JOINT mixamorig:LeftHandMiddle4
											{
												OFFSET 2.952896 0.000031 0.000063
												CHANNELS 6 Xposition Yposition Zposition Xrotation Yrotation Zrotation
												End Site
												{
													OFFSET 295.289337 0.000000 0.022810
												}
											}
										}
									}
								}
								JOINT mixamorig:LeftHandRing1
								{
									OFFSET 9.104523 -0.042999 -1.865074
									CHANNELS 6 Xposition Yposition Zposition Xrotation Yrotation Zrotation
									JOINT mixamorig:LeftHandRing2
									{
										OFFSET 3.150009 -0.000031 0.000043
										CHANNELS 6 Xposition Yposition Zposition Xrotation Yrotation Zrotation
										JOINT mixamorig:LeftHandRing3
										{
											OFFSET 2.949982 -0.000015 0.000040
											CHANNELS 6 Xposition Yposition Zposition Xrotation Yrotation Zrotation
											JOINT mixamorig:LeftHandRing4
											{
												OFFSET 2.644348 0.000000 0.000057
												CHANNELS 6 Xposition Yposition Zposition Xrotation Yrotation Zrotation
												End Site
												{
													OFFSET 264.434631 0.000000 0.012105
												}
											}
										}
									}
								}
								JOINT mixamorig:LeftHandPinky1
								{
									OFFSET 8.077789 -0.486847 -3.806259
									CHANNELS 6 Xposition Yposition Zposition Xrotation Yrotation Zrotation
									JOINT mixamorig:LeftHandPinky2
									{
										OFFSET 3.599953 0.000031 0.014727
										CHANNELS 6 Xposition Yposition Zposition Xrotation Yrotation Zrotation
										JOINT mixamorig:LeftHandPinky3
										{
											OFFSET 2.100021 0.000015 0.007705
											CHANNELS 6 Xposition Yposition Zposition Xrotation Yrotation Zrotation
											JOINT mixamorig:LeftHandPinky4
											{
												OFFSET 2.125504 0.000031 0.007517
												CHANNELS 6 Xposition Yposition Zposition Xrotation Yrotation Zrotation
												End Site
												{
													OFFSET 212.550781 0.000000 0.625752
												}
											}
										}
									}
								}
							}
						}
					}
				}
			}
		}
	}
	JOINT mixamorig:RightUpLeg
	{
		OFFSET -8.207787 -6.751648 -1.599560
		CHANNELS 6 Xposition Yposition Zposition Xrotation Yrotation Zrotation
		JOINT mixamorig:RightLeg
		{
			OFFSET -0.000002 -44.370117 0.345942
			CHANNELS 6 Xposition Yposition Zposition Xrotation Yrotation Zrotation
			JOINT mixamorig:RightFoot
			{
				OFFSET 0.000003 -44.423679 -3.043532
				CHANNELS 6 Xposition Yposition Zposition Xrotation Yrotation Zrotation
				JOINT mixamorig:RightToeBase
				{
					OFFSET -0.000002 -8.728671 10.710558
					CHANNELS 6 Xposition Yposition Zposition Xrotation Yrotation Zrotation
					JOINT mixamorig:RightToe_End
					{
						OFFSET -0.000001 -0.000679 9.278119
						CHANNELS 6 Xposition Yposition Zposition Xrotation Yrotation Zrotation
						End Site
						{
							OFFSET 0.000000 -0.067690 927.812134
						}
					}
				}
			}
		}
	}
	JOINT mixamorig:LeftUpLeg
	{
		OFFSET 8.207793 -6.751686 -1.599556
		CHANNELS 6 Xposition Yposition Zposition Xrotation Yrotation Zrotation
		JOINT mixamorig:LeftLeg
		{
			OFFSET -0.000004 -44.370014 0.346954
			CHANNELS 6 Xposition Yposition Zposition Xrotation Yrotation Zrotation
			JOINT mixamorig:LeftFoot
			{
				OFFSET -0.000001 -44.423672 -3.044401
				CHANNELS 6 Xposition Yposition Zposition Xrotation Yrotation Zrotation
				JOINT mixamorig:LeftToeBase
				{
					OFFSET -0.000002 -8.728669 10.710558
					CHANNELS 6 Xposition Yposition Zposition Xrotation Yrotation Zrotation
					JOINT mixamorig:LeftToe_End
					{
						OFFSET -0.000003 -0.000679 9.278133
						CHANNELS 6 Xposition Yposition Zposition Xrotation Yrotation Zrotation
						End Site
						{
							OFFSET 0.000000 -0.068021 927.813477
						}
					}
				}
			}
		}
	}
}
MOTION
Frames: 3
Frame Time: 0.033333
0.000006 104.270477 1.554256 0.000010 0.000003 -0.000113 -0.000005 10.181587 0.131522 0.000001 -0.000003 0.000084 -0.000000 9.893967 -1.470711 0.000001 0.000000 -0.000000 -0.000000 9.220802 -1.370642 0.000000 -0.000000 -0.000000 0.000001 16.740433 -2.049030 0.000000 -0.000000 -0.000000 0.000000 9.617859 1.685014 0.000000 0.000000 0.000000 0.000002 22.037384 7.501101 0.000000 -0.000000 0.000000 -4.569968 11.014880 -2.160881 0.000008 0.000001 -0.000038 -10.592858 -0.524658 -2.232055 70.678852 3.185851 -2.259301 -27.841551 0.000018 0.000522 117.152006 58.745583 -85.303913 -28.328836 0.000019 0.000022 -0.000318 -0.000045 0.000007 -2.464506 -1.573965 2.682398 -18.530337 -152.440970 47.124074 -3.215271 -1.872539 1.924640 156.401729 34.439334 18.400306 -2.654936 -1.527921 1.513103 155.117503 24.266597 -43.148211 -2.018837 -1.152000 1.108063 -0.000004 -0.000000 0.000000 -9.108396 -0.517571 2.260147 102.579114 18.614740 -23.173128 -3.700067 0.000309 0.001520 99.120142 14.779220 -17.277073 -2.850073 0.000369 -0.000249 97.517097 11.178236 -12.736994 -2.772160 -0.000003 -0.000003 -0.000001 -0.000000 0.000002 -9.532585 0.000266 0.000221 91.615650 15.141653 -15.714542 -3.700067 0.000316 0.003970 94.507285 10.856096 -11.638735 -2.950057 0.000342 -0.001815 94.167518 10.204713 -10.963297 -2.946630 0.000014 -0.000156 -0.000002 0.000001 -0.000001 -9.103697 -0.042749 -1.864876 90.252808 16.183172 -16.209338 -3.379316 0.000324 -0.000802 95.648617 10.116763 -11.179684 -2.889759 0.000356 0.000642 96.985387 6.461955 -7.351000 -2.638815 0.000001 0.000940 -0.000000 -0.000000 -0.000001 -8.076740 -0.486372 -3.806038 84.537204 15.444270 -13.917192 -3.600037 0.000278 -0.003515 89.050251 8.496018 -8.007378 -2.100017 0.000324 -0.005507 88.860631 5.041540 -4.729186 -2.115757 -0.000055 -0.003682 -0.000001 -0.000003 -0.000002 4.570446 11.014691 -2.160851 -0.000018 0.000010 -0.000021 10.592362 -0.524530 -2.232291 69.920688 5.440969 -3.805590 27.841835 0.000139 -0.000268 99.997221 -62.071728 71.285598 28.328823 -0.000028 0.000013 0.000023 -0.000089 -0.000000 2.466244 -1.576054 2.681839 -167.020351 16.679494 78.933429 3.217824 -1.871689 1.916390 168.855418 -29.992303 8.802253 2.656120 -1.528649 1.514490 140.428361 -27.165237 57.363405 2.020899 -1.154085 1.115132 -0.000000 0.000003 -0.000001 9.109389 -0.517849 2.259729 90.652490 -18.161137 18.352869 3.700047 0.000175 -0.000465 91.566930 -13.327302 13.710816 2.850035 0.000227 0.000223 91.088461 -10.489529 10.688274 2.774889 -0.000049 -0.000025 -0.000001 -0.000004 -0.000001 9.533454 0.000231 -0.000086 93.568817 -16.573784 17.613979 3.700047 0.000211 -0.000368 94.695402 -10.201404 11.065611 2.950069 0.000197 -0.000207 95.408713 -13.028273 14.310515 2.952879 -0.000012 0.000060 0.000004 0.000001 0.000001 9.104584 -0.042833 -1.865228 90.526002 -14.719380 14.855569 3.150024 0.000233 -0.000104 96.198946 -9.616684 10.713663 2.950015 0.000209 -0.000057 100.514273 -11.169657 13.416640 2.644326 0.000049 0.000055 0.000002 0.000000 -0.000000 8.077842 -0.486718 -3.806414 80.881843 -16.994160 15.019041 3.600015 0.000190 0.014565 83.910459 -14.394552 13.418194 2.100061 0.000209 0.007549 88.152901 -13.472615 13.523366 2.125495 -0.000016 0.007512 0.000001 0.000002 0.000000 -8.207786 -6.751667 -1.599560 -0.077001 -0.000003 0.000080 -0.000002 -44.370110 0.345938 0.153719 -0.000000 -0.000000 0.000000 -44.423679 -3.043532 -0.076700 0.000000 -0.000002 -0.000006 -8.728667 10.710559 -0.000009 -0.000000 -0.000000 -0.000001 -0.000679 9.278123 0.000000 -0.000000 -0.000000 8.207792 -6.751710 -1.599556 -0.074518 -0.000003 0.000081 -0.000002 -44.370014 0.346960 0.148822 0.000002 0.000000 -0.000001 -44.423664 -3.044403 -0.074314 0.000000 -0.000002 -0.000004 -8.728671 10.710558 0.000007 -0.000000 -0.000000 0.000000 -0.000680 9.278137 -0.000000 0.000000 -0.000001 
0.000006 104.270477 1.554256 0.000010 0.000003 -0.000113 -0.000005 10.181587 0.131522 0.000001 -0.000003 0.000084 -0.000000 9.893967 -1.470711 0.000001 0.000000 -0.000000 -0.000000 9.220802 -1.370642 0.000000 -0.000000 -0.000000 0.000001 16.740433 -2.049030 0.000000 -0.000000 -0.000000 0.000000 9.617859 1.685014 0.000000 0.000000 0.000000 0.000002 22.037384 7.501101 0.000000 -0.000000 0.000000 -4.569968 11.014880 -2.160881 0.000008 0.000001 -0.000038 -10.592866 -0.524673 -2.232032 70.327541 5.809624 -4.094516 -27.841551 0.000011 0.000557 117.712778 60.214784 -87.636696 -28.328825 0.000007 0.000026 -0.000322 -0.000044 0.000006 -2.464511 -1.574063 2.682402 -6.772593 -150.838717 64.256104 -3.215188 -1.872442 1.924622 145.134212 35.624808 55.211411 -2.654945 -1.527906 1.513100 156.126814 24.884355 -38.201183 -2.018815 -1.152007 1.108061 -0.000005 0.000001 0.000007 -9.108397 -0.517569 2.260154 105.345614 17.534299 -22.928581 -3.700065 0.000325 0.001550 105.301949 12.240132 -15.965145 -2.850080 0.000376 -0.000223 103.318065 8.789572 -11.099048 -2.772169 -0.000005 -0.000024 0.000002 -0.000001 -0.000001 -9.532595 0.000277 0.000232 93.054115 15.223952 -16.196016 -3.700053 0.000321 0.003987 95.889975 9.228838 -10.123520 -2.950036 0.000345 -0.001798 96.723839 8.972344 -10.079088 -2.946627 0.000014 -0.000140 -0.000001 -0.000000 -0.000002 -9.103703 -0.042752 -1.864877 90.725512 17.126534 -17.296293 -3.379328 0.000319 -0.000804 97.109765 9.426617 -10.688234 -2.889746 0.000375 0.000668 101.247555 5.701295 -6.998530 -2.638813 -0.000017 0.000948 -0.000000 0.000000 0.000001 -8.076746 -0.486403 -3.806039 82.757523 16.850299 -14.735117 -3.600037 0.000287 -0.003501 88.967633 9.215114 -8.699049 -2.100022 0.000320 -0.005471 94.522961 5.953517 -6.203698 -2.115766 -0.000043 -0.003683 -0.000003 0.000002 -0.000004 4.570446 11.014691 -2.160851 -0.000018 0.000010 -0.000021 10.592352 -0.524555 -2.232257 69.958745 16.656787 -11.696219 27.841831 0.000103 -0.000214 99.908804 -64.675280 73.979644 28.328842 -0.000043 0.000020 0.000021 -0.000089 -0.000001 2.466250 -1.575940 2.681812 -155.162596 -0.461251 50.274328 3.217908 -1.871915 1.916449 178.408680 -11.412356 55.363580 2.656108 -1.528662 1.514518 153.885214 -20.757785 64.083840 2.020880 -1.154058 1.115158 -0.000001 -0.000002 0.000001 9.109406 -0.517864 2.259756 93.142743 -23.870376 25.161271 3.700053 0.000173 -0.000455 94.445397 -13.715635 14.829852 2.850046 0.000209 0.000209 94.490592 -8.477276 9.164976 2.774871 -0.000031 -0.000023 0.000000 0.000002 0.000003 9.533481 0.000210 -0.000068 91.793945 -21.457301 22.113738 3.700057 0.000219 -0.000363 98.351787 -9.263280 10.711592 2.950054 0.000223 -0.000209 100.319291 -7.813152 9.361220 2.952871 -0.000031 0.000065 0.000001 -0.000001 0.000001 9.104596 -0.042846 -1.865229 90.567243 -19.800534 19.995623 3.150048 0.000238 -0.000101 98.177815 -10.799770 12.452593 2.950005 0.000230 -0.000081 99.747249 -7.769179 9.213818 2.644319 0.000029 0.000053 -0.000000 0.000000 -0.000000 8.077835 -0.486710 -3.806408 84.007789 -20.048950 18.637184 3.600010 0.000197 0.014589 85.385875 -15.416620 14.716602 2.100036 0.000200 0.007553 87.841506 -10.789792 10.850839 2.125488 -0.000027 0.007515 -0.000001 -0.000001 0.000003 -8.207786 -6.751667 -1.599560 -0.077001 -0.000003 0.000080 -0.000002 -44.370110 0.345938 0.153719 -0.000000 -0.000000 0.000000 -44.423679 -3.043532 -0.076700 0.000000 -0.000002 -0.000006 -8.728667 10.710559 -0.000009 -0.000000 -0.000000 -0.000001 -0.000679 9.278123 0.000000 -0.000000 -0.000000 8.207792 -6.751710 -1.599556 -0.074518 -0.000003 0.000081 -0.000002 -44.370014 0.346960 0.148822 0.000002 0.000000 -0.000001 -44.423664 -3.044403 -0.074314 0.000000 -0.000002 -0.000004 -8.728671 10.710558 0.000007 -0.000000 -0.000000 0.000000 -0.000680 9.278137 -0.000000 0.000000 -0.000001 
0.000006 104.270477 1.554256 0.000010 0.000003 -0.000113 -0.000005 10.181587 0.131522 0.000001 -0.000003 0.000084 -0.000000 9.893967 -1.470711 0.000001 0.000000 -0.000000 -0.000000 9.220802 -1.370642 0.000000 -0.000000 -0.000000 0.000001 16.740433 -2.049030 0.000000 -0.000000 -0.000000 0.000000 9.617859 1.685014 0.000000 0.000000 0.000000 0.000002 22.037384 7.501101 0.000000 -0.000000 0.000000 -4.569968 11.014880 -2.160881 0.000008 0.000001 -0.000038 -10.592880 -0.524738 -2.231940 67.481661 25.422966 -17.136518 -27.841539 0.000005 0.000542 121.769487 66.209941 -98.993155 -28.328819 0.000023 0.000024 -0.000322 -0.000043 0.000007 -2.464649 -1.574108 2.682398 11.832107 -158.335642 95.043332 -3.215022 -1.872406 1.924631 131.632020 26.369260 104.167953 -2.654946 -1.527928 1.513086 162.944872 24.249992 -34.504774 -2.018823 -1.152001 1.108068 -0.000006 -0.000004 0.000004 -9.108399 -0.517598 2.260191 112.391132 20.059591 -29.664536 -3.700051 0.000297 0.001593 111.830127 13.621336 -19.984310 -2.850077 0.000373 -0.000218 108.380137 9.242854 -12.784124 -2.772160 -0.000000 -0.000022 -0.000001 0.000001 0.000002 -9.532584 0.000274 0.000263 99.175733 16.216428 -19.164966 -3.700055 0.000338 0.004002 102.056823 9.569390 -11.701229 -2.950043 0.000332 -0.001758 101.606727 9.042096 -11.068032 -2.946617 0.000001 -0.000155 0.000000 -0.000000 -0.000000 -9.103703 -0.042749 -1.864854 95.408631 17.113978 -18.733063 -3.379323 0.000309 -0.000766 100.305884 10.480789 -12.564219 -2.889752 0.000362 0.000672 102.907510 6.889757 -8.698451 -2.638811 -0.000013 0.000943 0.000000 0.000000 0.000001 -8.076749 -0.486401 -3.806032 85.192895 17.130830 -15.629672 -3.600033 0.000278 -0.003505 89.499828 10.556524 -10.103907 -2.100023 0.000317 -0.005480 94.340717 7.521599 -7.869545 -2.115768 -0.000040 -0.003681 0.000004 -0.000000 -0.000003 4.570446 11.014691 -2.160851 -0.000018 0.000010 -0.000021 10.592365 -0.524525 -2.232283 69.285951 4.800035 -3.317580 27.841822 0.000096 -0.000230 99.043904 -67.252508 75.857905 28.328848 -0.000013 0.000032 0.000021 -0.000087 -0.000000 2.466201 -1.575847 2.681860 -136.890078 -20.099174 22.236789 3.217698 -1.871642 1.916470 181.748889 -46.428409 -33.674489 2.655926 -1.528782 1.514667 149.477911 -5.784505 130.616098 2.020902 -1.154080 1.115155 0.000001 0.000003 0.000004 9.109413 -0.517897 2.259781 90.900672 -33.871492 34.362712 3.700065 0.000142 -0.000412 97.783864 -24.779042 28.281662 2.850059 0.000226 0.000207 99.739320 -16.972668 20.073067 2.774893 -0.000030 -0.000028 0.000003 0.000004 0.000001 9.533502 0.000207 -0.000051 93.959210 -27.218388 29.077010 3.700059 0.000206 -0.000346 102.113999 -15.326613 18.902400 2.950064 0.000222 -0.000195 105.282421 -12.379848 16.175321 2.952873 -0.000030 0.000068 0.000001 0.000000 0.000000 9.104614 -0.042846 -1.865210 93.118708 -23.147859 24.407737 3.150056 0.000213 -0.000078 102.134831 -12.872105 15.900839 2.950037 0.000224 -0.000091 106.441982 -8.598320 11.487677 2.644320 0.000031 0.000055 -0.000000 0.000000 -0.000001 8.077871 -0.486704 -3.806398 86.438680 -19.924883 19.314680 3.599997 0.000236 0.014575 94.249842 -13.667241 15.258878 2.100042 0.000254 0.007534 102.509166 -9.904349 12.911566 2.125523 -0.000016 0.007516 0.000001 0.000001 -0.000002 -8.207786 -6.751667 -1.599560 -0.077001 -0.000003 0.000080 -0.000002 -44.370110 0.345938 0.153719 -0.000000 -0.000000 0.000000 -44.423679 -3.043532 -0.076700 0.000000 -0.000002 -0.000006 -8.728667 10.710559 -0.000009 -0.000000 -0.000000 -0.000001 -0.000679 9.278123 0.000000 -0.000000 -0.000000 8.207792 -6.751710 -1.599556 -0.074518 -0.000003 0.000081 -0.000002 -44.370014 0.346960 0.148822 0.000002 0.000000 -0.000001 -44.423664 -3.044403 -0.074314 0.000000 -0.000002 -0.000004 -8.728671 10.710558 0.000007 -0.000000 -0.000000 0.000000 -0.000680 9.278137 -0.000000 0.000000 -0.000001 
